<svg height='300px' width='300px'  fill="#000000" xmlns="http://www.w3.org/2000/svg" data-name="30 Think of Music" viewBox="0 0 64 64" x="0px" y="0px"><title>30 Think of Music</title><path d="M55.8,43.132,52,35.758c0-1.144,0-4.5-.021-4.817a1,1,0,0,0-1-.941H43.535l-1.7-2.555a1.039,1.039,0,0,0-1.664,0L38.465,30H37a1,1,0,0,0-.832.445l-1.044,1.567L32.9,27.553a1.042,1.042,0,0,0-1.79,0l-2.229,4.459-1.044-1.567A1,1,0,0,0,27,30H25.535l-1.7-2.555a1,1,0,0,0-1.727.108l-2.229,4.459-1.044-1.567A1,1,0,0,0,18,30H9a1,1,0,0,0-1,1c0,10.116,3.948,14.6,7.121,18.212C17.288,51.676,19,53.623,19,56.77V59a2,2,0,0,0,2,2H38a2,2,0,0,0,2-2V57h8a3,3,0,0,0,3-3l.045-7.19,3.352-.849A2,2,0,0,0,56,44,2.029,2.029,0,0,0,55.8,43.132Zm-5.191,1.726A2,2,0,0,0,49,46.82V54a1,1,0,0,1-1,1H37a9.311,9.311,0,0,1-8.012-4.536l-1.12-1.96a1,1,0,0,0-1.736.992l1.12,1.959A11.341,11.341,0,0,0,37,57h1v2H21V56.77c0-3.9-2.126-6.32-4.378-8.878-2.991-3.4-6.366-7.24-6.608-15.892h7.451l1.7,2.555a1,1,0,0,0,1.727-.108l2.229-4.459,1.044,1.567A1,1,0,0,0,25,32h1.465l1.7,2.555a1,1,0,0,0,1.727-.108L32,30.236l2.1,4.211a1,1,0,0,0,1.727.108L37.535,32H39a1,1,0,0,0,.832-.445L41,29.8l1.168,1.752A1,1,0,0,0,43,32h6.992C50,33.067,50,34.8,50,36a1,1,0,0,0,.111.458L54,44Z"></path><path d="M22,24c2.851,0,5-1.29,5-3V11.868l12-1.715v6.426A7.519,7.519,0,0,0,36,16c-2.851,0-5,1.29-5,3s2.149,3,5,3,5-1.29,5-3V4a1,1,0,0,0-1.142-.99l-14,2A1,1,0,0,0,25,6V18.579A7.519,7.519,0,0,0,22,18c-2.851,0-5,1.29-5,3S19.149,24,22,24Zm14-4c-1.936,0-3-.751-3-1s1.064-1,3-1,3,.751,3,1S37.936,20,36,20ZM27,6.867,39,5.153v2.98L27,9.847ZM22,20c1.936,0,3,.751,3,1s-1.064,1-3,1-3-.751-3-1S20.064,20,22,20Z"></path><path d="M9,16h1v1a1,1,0,0,0,2,0V16h1a1,1,0,0,0,0-2H12V13a1,1,0,0,0-2,0v1H9a1,1,0,0,0,0,2Z"></path><path d="M47,16h1v1a1,1,0,0,0,2,0V16h1a1,1,0,0,0,0-2H50V13a1,1,0,0,0-2,0v1H47a1,1,0,0,0,0,2Z"></path></svg>